<svg width="24" height="24" viewBox="0 0 24 24" xmlns="http://www.w3.org/2000/svg" class="ecw-icon__svg" style="fill: rgb(191, 191, 191); transform: rotate(0deg); width: 18px; height: 18px; min-width: 18px; min-height: 18px;"><path d="M16.74 4.83c.4 0 .765.34.765.755v15.283a.784.784 0 01-.765.792H7.26c-.437 0-.765-.377-.765-.792V5.623c0-.453.364-.793.765-.793zM15.974 6H8.026a.372.372 0 00-.365.377v13.66c0 .19.146.378.365.378h7.948c.182 0 .365-.15.365-.377V6.378c0-.19-.146-.378-.365-.378zm-.365.792V19.66H8.427V6.792h7.182zm-2.224 1.736l-4.156 4.68 2.771.679-1.458 4 4.192-4.68-2.843-.679 1.494-4zM15.245 2v2.038h-6.49V2h6.49z"></path></svg>