<svg width="24" height="24" viewBox="0 0 24 24" xmlns="http://www.w3.org/2000/svg" xmlns:xlink="http://www.w3.org/1999/xlink" class="ecw-icon__svg" style="fill: rgb(191, 191, 191); transform: rotate(0deg); width: 18px; height: 18px; min-width: 18px; min-height: 18px;"><defs><path d="M17.875 4a2.125 2.125 0 00-1.063 3.963v3.474h-4.249V7.963a2.133 2.133 0 001.062-1.838 2.125 2.125 0 10-3.188 1.838v3.474h-4.25V7.963A2.122 2.122 0 005.125 4a2.125 2.125 0 00-1.063 3.963v9.073A2.122 2.122 0 005.125 21a2.125 2.125 0 001.063-3.964v-3.474h4.25v3.475A2.122 2.122 0 0011.5 21a2.125 2.125 0 001.063-3.963v-3.474h5.312c.587 0 1.063-.476 1.063-1.063V7.963A2.122 2.122 0 0017.875 4" id="transmission_svg__a"></path></defs><use xlink:href="#transmission_svg__a" fill-rule="evenodd"></use></svg>